HIERARCHY
ROOT Hips
{
	OFFSET 0.000000 0.000000 0.000000
	CHANNELS 6 Xposition Yposition Zposition Xrotation Yrotation Zrotation
	JOINT LeftUpLeg_virtual
	{
		OFFSET 0.000000 0.000000 0.000000
		CHANNELS 3 Xrotation Yrotation Zrotation
		JOINT LeftUpLeg
		{
			OFFSET 15.427100 -6.655098 0.678600
			CHANNELS 3 Xrotation Yrotation Zrotation
			JOINT LeftLeg
			{
				OFFSET 4.081073 -39.591068 13.024000
				CHANNELS 3 Xrotation Yrotation Zrotation
				JOINT LeftFoot
				{
					OFFSET -4.081074 -37.707932 -15.979700
					CHANNELS 3 Xrotation Yrotation Zrotation
					JOINT LeftToeBase
					{
						OFFSET 5.346399 -15.068900 20.645000
						CHANNELS 3 Xrotation Yrotation Zrotation
						JOINT LeftToe_End
						{
							OFFSET 2.754700 0.931300 11.300900
							CHANNELS 3 Xrotation Yrotation Zrotation
							End Site
							{
								OFFSET 0 0 0
							}
						}
					}
				}
			}
		}
	}
	JOINT RightUpLeg_virtual
	{
		OFFSET 0.000000 0.000000 0.000000
		CHANNELS 3 Xrotation Yrotation Zrotation
		JOINT RightUpLeg
		{
			OFFSET -15.569500 -6.655098 0.678600
			CHANNELS 3 Xrotation Yrotation Zrotation
			JOINT RightLeg
			{
				OFFSET -4.081825 -39.591045 13.023800
				CHANNELS 3 Xrotation Yrotation Zrotation
				JOINT RightFoot
				{
					OFFSET 4.081824 -37.707954 -15.979600
					CHANNELS 3 Xrotation Yrotation Zrotation
					JOINT RightToeBase
					{
						OFFSET -5.346400 -15.068900 20.645000
						CHANNELS 3 Xrotation Yrotation Zrotation
						JOINT RightToe_End
						{
							OFFSET -2.754700 0.931300 11.300900
							CHANNELS 3 Xrotation Yrotation Zrotation
							End Site
							{
								OFFSET 0 0 0
							}
						}
					}
				}
			}
		}
	}
	JOINT Spine_virtual
	{
		OFFSET 0.000000 0.000000 0.000000
		CHANNELS 3 Xrotation Yrotation Zrotation
		JOINT Spine
		{
			OFFSET -0.279200 12.230698 -2.892100
			CHANNELS 3 Xrotation Yrotation Zrotation
			JOINT Spine1
			{
				OFFSET -0.232667 10.192268 -1.242267
				CHANNELS 3 Xrotation Yrotation Zrotation
				JOINT Spine1_split
				{
					OFFSET -0.232667 10.192268 -1.242267
					CHANNELS 3 Xrotation Yrotation Zrotation
					JOINT Spine2
					{
						OFFSET -0.232667 10.192268 -1.242267
						CHANNELS 3 Xrotation Yrotation Zrotation
						JOINT Neck_virtual
						{
							OFFSET 0.000000 0.000000 0.000000
							CHANNELS 3 Xrotation Yrotation Zrotation
							JOINT Neck
							{
								OFFSET -0.418800 17.814194 8.416900
								CHANNELS 3 Xrotation Yrotation Zrotation
								JOINT Head
								{
									OFFSET 0.000000 7.031097 3.806800
									CHANNELS 3 Xrotation Yrotation Zrotation
									JOINT HeadTop_End
									{
										OFFSET 0.000000 24.646606 12.978600
										CHANNELS 3 Xrotation Yrotation Zrotation
										End Site
										{
											OFFSET 0 0 0
										}
									}
								}
							}
						}
						JOINT LeftShoulder_virtual
						{
							OFFSET 0.000000 0.000000 0.000000
							CHANNELS 3 Xrotation Yrotation Zrotation
							JOINT LeftShoulder
							{
								OFFSET 8.476499 7.247704 -3.868750
								CHANNELS 3 Xrotation Yrotation Zrotation
								JOINT LeftShoulder_split
								{
									OFFSET 8.476499 7.247704 -3.868750
									CHANNELS 3 Xrotation Yrotation Zrotation
									JOINT LeftArm
									{
										OFFSET 9.308998 -2.777710 0.208600
										CHANNELS 3 Xrotation Yrotation Zrotation
										JOINT LeftForeArm
										{
											OFFSET 29.972298 0.000000 0.000000
											CHANNELS 3 Xrotation Yrotation Zrotation
											JOINT LeftHand
											{
												OFFSET 26.026505 0.000000 0.000000
												CHANNELS 3 Xrotation Yrotation Zrotation
												End Site
												{
													OFFSET 0 0 0
												}
											}
										}
									}
								}
							}
						}
						JOINT RightShoulder_virtual
						{
							OFFSET 0.000000 0.000000 0.000000
							CHANNELS 3 Xrotation Yrotation Zrotation
							JOINT RightShoulder
							{
								OFFSET -7.570500 7.247704 -3.868750
								CHANNELS 3 Xrotation Yrotation Zrotation
								JOINT RightShoulder_split
								{
									OFFSET -7.570500 7.247704 -3.868750
									CHANNELS 3 Xrotation Yrotation Zrotation
									JOINT RightArm
									{
										OFFSET -9.308998 -2.777710 0.208500
										CHANNELS 3 Xrotation Yrotation Zrotation
										JOINT RightForeArm
										{
											OFFSET -29.972300 0.000000 0.000000
											CHANNELS 3 Xrotation Yrotation Zrotation
											JOINT RightHand
											{
												OFFSET -26.026505 0.000000 0.000000
												CHANNELS 3 Xrotation Yrotation Zrotation
												End Site
												{
													OFFSET 0 0 0
												}
											}
										}
									}
								}
							}
						}
					}
				}
			}
		}
	}
}
MOTION
Frames: 9
Frame Time: 0.03333333
0.413933 71.750694 1.976440 0.000000 0.000000 0.000000 7.035107 -51.800339 7.907863 -68.330374 23.146205 37.348089 48.313674 -16.772484 5.358814 8.513469 1.645868 -10.355947 -1.882201 -5.641119 0.487750 0.000000 0.000000 0.000000 4.340893 -51.767827 7.416567 -25.829718 1.184674 -29.702754 46.103056 7.767655 -7.419734 -25.507832 -4.724292 25.750747 3.403246 4.112704 1.860026 0.000000 0.000000 0.000000 9.167365 -50.562111 9.175258 12.405749 2.359690 -3.042505 4.737631 6.613576 -3.739029 0.480593 -2.604867 1.213688 0.000000 0.000000 0.000000 -4.084567 6.118684 -2.053255 0.673934 10.488709 -0.945440 -4.554305 23.721387 -1.706431 0.000000 0.000000 0.000000 -5.462306 6.180636 -2.382352 -1.328494 -10.196100 -4.310036 4.390434 -0.979428 -0.489418 -14.041803 2.319531 -43.914001 -22.963021 -27.547162 -15.683373 0.000000 0.000000 0.000000 -5.003741 5.775708 -2.444838 -2.497269 13.597736 0.605201 -2.177315 -4.434239 2.253604 0.626612 -14.306988 58.611452 -10.551548 44.789167 18.533978 0.000000 0.000000 0.000000 
0.453307 71.673607 1.753384 0.000000 0.000000 0.000000 7.307534 -52.313962 7.990223 -68.073852 22.977984 37.510337 48.535806 -16.640622 5.411832 7.375944 1.749430 -9.595449 -2.018604 -5.593255 0.411408 0.000000 0.000000 0.000000 4.669118 -51.495436 7.410206 -25.871841 1.589369 -29.589114 45.940255 7.935909 -7.343493 -25.321796 -4.446924 26.135664 3.345172 4.210503 1.788566 0.000000 0.000000 0.000000 9.231615 -50.811355 9.172311 12.447164 2.397127 -3.248956 4.825778 6.612514 -3.810170 0.598348 -2.452557 1.292046 0.000000 0.000000 0.000000 -4.123068 6.148661 -2.098063 0.383523 10.455527 -1.002693 -4.663221 23.831623 -1.692549 0.000000 0.000000 0.000000 -5.292904 6.211888 -2.431638 -1.326389 -10.260259 -4.236260 4.287022 -0.944561 -0.192359 -14.014176 2.366882 -43.570204 -22.922292 -27.365682 -15.691764 0.000000 0.000000 0.000000 -5.000497 5.780483 -2.574340 -2.389195 14.305043 0.789627 -1.554558 -4.777449 1.480537 0.851743 -14.644735 56.367663 -7.659821 41.123428 16.967515 0.000000 0.000000 0.000000 
0.477103 71.561676 1.438614 0.000000 0.000000 0.000000 7.957868 -53.012831 8.314563 -67.354538 22.891256 37.700978 48.337908 -16.433116 5.300110 6.002658 2.146540 -9.189769 -2.147210 -5.467635 0.450592 0.000000 0.000000 0.000000 5.080568 -51.509141 7.506854 -26.369737 1.828074 -29.387910 45.872636 7.825189 -7.226445 -24.678478 -3.986784 26.669886 3.273256 4.182908 1.869045 0.000000 0.000000 0.000000 9.394933 -51.046918 9.216711 12.469627 2.507033 -3.471465 5.000477 6.618913 -3.940746 0.468766 -2.354394 1.332246 0.000000 0.000000 0.000000 -4.054986 6.177510 -2.220448 0.050294 10.413347 -1.109227 -4.664749 23.912018 -1.794621 0.000000 0.000000 0.000000 -5.039512 6.217546 -2.595357 -1.318614 -10.114047 -4.116742 4.211729 -0.853706 0.034320 -14.442105 2.451505 -42.967853 -22.697417 -27.214773 -15.544769 0.000000 0.000000 0.000000 -4.949218 5.802919 -2.793652 -2.433266 15.053337 1.033768 -1.295240 -4.734238 0.814372 1.660080 -15.408528 54.407661 -1.677053 37.569428 13.522344 0.000000 0.000000 0.000000 
0.412277 71.471062 1.010994 0.000000 0.000000 0.000000 8.745126 -53.564304 8.765244 -66.454414 22.840561 37.903073 47.514935 -16.329922 5.066333 5.290522 2.523904 -9.485966 -2.334513 -5.278260 0.549845 0.000000 0.000000 0.000000 5.512760 -51.633279 7.740703 -27.070449 1.886059 -29.226373 46.094560 7.269773 -7.137115 -24.092746 -3.589205 27.147943 3.259631 4.015145 2.051190 0.000000 0.000000 0.000000 9.607641 -51.038971 9.360557 12.438721 2.665650 -3.657041 5.206822 6.610035 -4.129671 0.266217 -2.544048 1.279790 0.000000 0.000000 0.000000 -3.882072 6.169957 -2.422538 -0.263218 10.360965 -1.251788 -4.530576 23.912726 -2.013427 0.000000 0.000000 0.000000 -4.781538 6.184071 -2.858277 -1.303501 -9.737229 -3.902688 4.118531 -0.969044 0.200120 -15.317584 2.432147 -42.307725 -22.287701 -27.104803 -15.284517 0.000000 0.000000 0.000000 -4.860615 5.796890 -3.057554 -2.585463 15.797502 1.436427 -1.163492 -4.752865 0.395036 3.106766 -15.800050 52.972328 5.837152 35.060505 9.333290 0.000000 0.000000 0.000000 
0.259167 71.514290 0.522156 0.000000 0.000000 0.000000 9.232335 -53.509812 9.089648 -65.600620 22.773077 38.045021 46.007417 -16.404578 4.718411 6.024457 2.425252 -10.530690 -2.683648 -5.069531 0.658504 0.000000 0.000000 0.000000 5.765368 -51.531670 7.990491 -27.559146 1.671927 -29.169641 46.568056 6.160808 -7.163375 -23.786574 -3.516946 27.522179 3.055057 3.718682 2.208557 0.000000 0.000000 0.000000 9.681158 -50.452452 9.514581 12.352937 2.804323 -3.795840 5.413547 6.575718 -4.357795 0.012547 -3.023642 1.107408 0.000000 0.000000 0.000000 -3.675838 6.088848 -2.689369 -0.508342 10.266724 -1.435988 -4.308465 23.744229 -2.328758 0.000000 0.000000 0.000000 -4.572659 6.106219 -3.188353 -1.267004 -9.195822 -3.586813 3.960236 -1.231398 0.497926 -16.463027 2.155034 -41.856024 -21.735757 -27.181202 -14.989620 0.000000 0.000000 0.000000 -4.754878 5.733191 -3.315747 -2.715190 16.555016 2.073878 -1.318221 -4.950717 0.308372 5.115671 -15.217682 52.082754 13.788793 33.676596 4.893991 0.000000 0.000000 0.000000 
0.026418 71.842232 -0.041054 0.000000 0.000000 0.000000 9.252914 -52.524182 9.145902 -65.082987 22.678653 38.061089 43.822583 -16.552738 4.269967 8.245363 1.556944 -11.833855 -2.985611 -4.885485 0.776703 0.000000 0.000000 0.000000 5.865927 -50.750341 8.208180 -27.340441 1.199035 -29.203669 47.103023 4.589815 -7.322912 -23.907400 -3.800656 27.832546 2.519246 3.342006 2.228219 0.000000 0.000000 0.000000 9.621442 -49.037760 9.644143 12.271540 2.881148 -3.862637 5.616516 6.497886 -4.586323 -0.181388 -3.308193 1.048685 0.000000 0.000000 0.000000 -3.492693 5.946354 -2.976233 -0.731987 10.093812 -1.658779 -4.070716 23.289275 -2.717401 0.000000 0.000000 0.000000 -4.428201 5.963968 -3.524986 -1.205637 -8.584341 -3.169393 3.707460 -1.453989 1.005168 -17.700116 1.551780 -41.820903 -21.081039 -27.562426 -14.744888 0.000000 0.000000 0.000000 -4.670128 5.626315 -3.538887 -2.722800 17.316720 2.947511 -1.346665 -4.870499 0.095343 7.480427 -13.274806 51.246117 21.156564 32.731264 0.696372 0.000000 0.000000 0.000000 
-0.279718 72.396400 -0.771038 0.000000 0.000000 0.000000 8.860916 -50.407274 8.916235 -64.798394 22.465230 37.905750 41.334058 -16.679226 3.693726 11.100919 0.053018 -12.864164 -2.962360 -4.765259 0.831149 0.000000 0.000000 0.000000 6.052995 -48.973382 8.411471 -26.169930 0.377761 -29.283978 47.315924 2.723451 -7.576581 -24.609658 -4.448426 28.165629 2.054303 2.945284 2.088098 0.000000 0.000000 0.000000 9.409376 -46.780662 9.661859 12.260464 2.860235 -3.899813 5.857097 6.365703 -4.819966 -0.356025 -3.415011 0.975837 0.000000 0.000000 0.000000 -3.352236 5.768773 -3.231587 -1.073014 9.758128 -1.929366 -3.885642 22.498332 -3.128764 0.000000 0.000000 0.000000 -4.345606 5.789022 -3.818311 -1.131319 -8.032307 -2.674250 3.463200 -1.524887 1.648008 -18.993180 0.601041 -42.365686 -20.393867 -28.230215 -14.590495 0.000000 0.000000 0.000000 -4.565774 5.480249 -3.704644 -2.560679 17.936002 3.945727 -1.285929 -4.702944 -0.381482 10.254959 -9.562527 49.882982 27.082166 31.683561 -2.750841 0.000000 0.000000 0.000000 
-0.603325 73.070572 -1.573269 0.000000 0.000000 0.000000 8.431565 -47.174846 8.581159 -64.399723 22.240440 37.360831 38.924886 -16.474498 2.966870 13.073459 -1.495730 -13.151229 -2.326507 -4.705231 0.736277 0.000000 0.000000 0.000000 6.257999 -46.153559 8.476718 -24.140786 -0.819770 -29.297943 46.843469 0.781059 -7.846200 -25.908550 -5.337461 28.539805 1.813059 2.564794 1.832446 0.000000 0.000000 0.000000 9.085679 -43.710123 9.487481 12.367498 2.731168 -3.939489 6.183430 6.228341 -5.043453 -0.467093 -3.331332 1.017316 0.000000 0.000000 0.000000 -3.244848 5.603272 -3.435414 -1.632624 9.158712 -2.224085 -3.779468 21.336049 -3.485599 0.000000 0.000000 0.000000 -4.250149 5.640554 -4.031696 -1.054565 -7.578169 -2.183583 3.148762 -1.584929 2.363660 -20.351544 -0.592340 -43.549091 -19.752050 -29.139288 -14.564694 0.000000 0.000000 0.000000 -4.403434 5.340810 -3.812530 -2.185635 18.118627 4.898563 -1.343955 -4.560135 -1.090355 13.245169 -4.443078 47.565031 30.902549 30.370020 -5.110672 0.000000 0.000000 0.000000 
-0.872680 73.783325 -2.484795 0.000000 0.000000 0.000000 8.194073 -43.244178 8.250268 -63.412801 21.826023 36.170513 37.319570 -15.574214 2.225187 12.856798 -2.404736 -12.878795 -1.443632 -4.657022 0.523111 0.000000 0.000000 0.000000 6.505216 -42.432048 8.394821 -21.630258 -2.261962 -29.167479 45.628799 -0.991032 -8.015872 -27.749503 -6.180993 28.827968 1.830407 2.209537 1.651177 0.000000 0.000000 0.000000 8.735066 -40.051078 9.099683 12.590464 2.545958 -3.973858 6.610123 6.121375 -5.237117 -0.392498 -3.026525 1.158770 0.000000 0.000000 0.000000 -3.110310 5.509943 -3.587270 -2.449154 8.302949 -2.478997 -3.752230 19.813177 -3.711890 0.000000 0.000000 0.000000 -4.094919 5.564106 -4.141790 -0.979847 -7.261272 -1.689197 2.939158 -1.659792 2.844315 -21.836026 -1.883979 -45.250898 -19.229127 -30.216675 -14.714970 0.000000 0.000000 0.000000 -4.189160 5.250362 -3.881742 -1.601540 17.492034 5.607086 -1.507331 -4.599064 -1.817293 16.633061 1.282038 44.106039 32.611100 29.377788 -6.575576 0.000000 0.000000 0.000000 
